HIERARCHY
ROOT Hips
{
	OFFSET 0.000000 8.830580 0.000000
	CHANNELS 6 Xposition Yposition Zposition Zrotation Yrotation Xrotation 
	JOINT Spine
	{
		OFFSET 0.000000 0.010000 0.000000
		CHANNELS 3 Zrotation Yrotation Xrotation
		JOINT Spine1
		{
			OFFSET 0.000000 2.459130 0.000000
			CHANNELS 3 Zrotation Yrotation Xrotation
			JOINT Neck
			{
				OFFSET 0.000000 2.484630 0.000000
				CHANNELS 3 Zrotation Yrotation Xrotation
				JOINT Head_virtual
				{
					OFFSET 0.000000 0.000000 0.000000
					CHANNELS 3 Zrotation Yrotation Xrotation
					JOINT Head
					{
						OFFSET 0.000000 0.927525 0.000000
						CHANNELS 3 Zrotation Yrotation Xrotation
						End Site
						{
							OFFSET 0.000000 0.000000 0.000000
						}
					}
				}
				JOINT LeftUpArm_virtual
				{
					OFFSET 0.000000 0.000000 0.000000
					CHANNELS 3 Zrotation Yrotation Xrotation
					JOINT LeftUpArm
					{
						OFFSET 1.248820 0.000000 0.000000
						CHANNELS 3 Zrotation Yrotation Xrotation
						JOINT LeftForeArm
						{
							OFFSET 2.597580 0.000000 0.000000
							CHANNELS 3 Zrotation Yrotation Xrotation
							JOINT LeftHand
							{
								OFFSET 2.455420 0.000000 0.000000
								CHANNELS 3 Zrotation Yrotation Xrotation
								End Site
								{
									OFFSET 0.000000 0.000000 0.000000
								}
							}
						}
					}
				}
				JOINT RightUpArm_virtual
				{
					OFFSET -0.000000 -0.000000 -0.000000
					CHANNELS 3 Zrotation Yrotation Xrotation
					JOINT RightUpArm
					{
						OFFSET -1.248820 -0.000000 -0.000000
						CHANNELS 3 Zrotation Yrotation Xrotation
						JOINT RightForeArm
						{
							OFFSET -2.597580 -0.000000 -0.000000
							CHANNELS 3 Zrotation Yrotation Xrotation
							JOINT RightHand
							{
								OFFSET -2.455420 -0.000000 -0.000000
								CHANNELS 3 Zrotation Yrotation Xrotation
								End Site
								{
									OFFSET 0.000000 0.000000 0.000000
								}
							}
						}
					}
				}
			}
		}
	}
	JOINT LeftUpLeg
	{
		OFFSET 1.271939 0.000000 0.000000
		CHANNELS 3 Zrotation Yrotation Xrotation
		JOINT LeftLowLeg
		{
			OFFSET 0.000000 -4.342910 0.000000
			CHANNELS 3 Zrotation Yrotation Xrotation
			JOINT LeftFoot
			{
				OFFSET 0.000000 -4.487670 0.000000
				CHANNELS 3 Zrotation Yrotation Xrotation
				JOINT LeftToeBase
				{
					OFFSET 0.000000 0.000000 1.515070
					CHANNELS 3 Zrotation Yrotation Xrotation
					End Site
					{
						OFFSET 0.000000 0.000000 0.000000
					}
				}
			}
		}
	}
	JOINT RightUpLeg
	{
		OFFSET -1.271939 0.000000 0.000000
		CHANNELS 3 Zrotation Yrotation Xrotation
		JOINT RightLowLeg
		{
			OFFSET 0.000000 -4.342910 0.000000
			CHANNELS 3 Zrotation Yrotation Xrotation
			JOINT RightFoot
			{
				OFFSET 0.000000 -4.487670 0.000000
				CHANNELS 3 Zrotation Yrotation Xrotation
				JOINT RightToeBase
				{
					OFFSET 0.000000 0.000000 1.515070
					CHANNELS 3 Zrotation Yrotation Xrotation
					End Site
					{
						OFFSET 0.000000 0.000000 0.000000
					}
				}
			}
		}
	}
}
MOTION
Frames: 10
Frame Time: 0.041667
-17.314339 6.264965 38.085780 -179.360040 -3.797989 149.428995 7.323925 -19.338165 -4.914562 -6.836162 22.980015 40.431820 0.000000 0.000000 0.000000 7.915243 0.026835 15.223347 -15.232965 -10.655345 -84.353709 -24.297800 2.133800 1.849600 -43.732201 12.299600 0.411987 0.000000 -72.058502 0.000000 8.531550 15.356900 24.351990 28.871300 -2.920600 -0.715892 35.879299 -1.979060 26.415199 0.000000 62.194000 0.000000 -12.625000 -1.669330 -4.820480 -0.261155 -7.865854 -43.293395 0.000000 0.000000 82.273903 -16.669204 7.418943 7.255391 0.000000 0.000000 -13.076400 14.005606 -3.489067 -52.536168 0.000000 0.000000 110.522003 22.416492 -15.471491 18.342251 0.000000 0.000000 -23.376640 
-17.316990 6.265731 38.084527 -179.316329 -3.901447 149.539978 7.389110 -19.236610 -4.761083 -6.636820 23.118211 40.535635 0.000000 0.000000 0.000000 5.794267 2.340324 16.194102 -16.353001 -10.773821 -83.544255 -24.351400 2.172790 1.779060 -43.632401 12.137500 1.234985 0.000000 -72.253502 0.000000 8.960710 15.296900 24.550995 28.726900 -2.912960 -0.661361 35.891399 -1.963330 26.450800 0.000000 62.213699 0.000000 -12.872700 -1.748750 -4.851750 -0.238667 -8.191251 -43.476839 0.000000 0.000000 83.559799 -16.364299 7.697639 6.753972 0.000000 0.000000 -12.977500 13.822524 -3.440453 -52.372858 0.000000 0.000000 110.154999 21.861629 -16.102847 18.619524 0.000000 0.000000 -23.249240 
-17.321086 6.266461 38.081767 -179.268606 -4.037187 149.659088 7.495358 -19.126032 -4.666463 -6.451873 23.263832 40.669258 0.000000 0.000000 0.000000 3.824931 4.540781 17.008016 -17.380866 -10.841046 -82.701641 -24.503201 2.230720 1.808640 -43.524601 11.887200 1.880005 0.000000 -72.402298 0.000000 9.400750 15.236300 24.492004 28.572599 -2.848580 -0.629792 35.841599 -2.077840 26.534201 0.000000 62.297401 0.000000 -13.146200 -1.904850 -4.990520 -0.234433 -8.531372 -43.669194 0.000000 0.000000 84.813400 -16.011019 7.900853 6.132059 0.000000 0.000000 -12.907430 13.528430 -3.375915 -52.137107 0.000000 0.000000 109.696999 21.380002 -16.350102 18.854022 0.000000 0.000000 -23.323120 
-17.325583 6.267566 38.078717 -179.190991 -4.160672 149.825081 7.714175 -18.967162 -4.637944 -6.329692 23.425504 40.830543 0.000000 0.000000 0.000000 2.124091 6.444181 17.641451 -18.450947 -10.826860 -81.818300 -24.617001 2.290390 1.741880 -43.508598 11.637900 2.436005 0.000000 -72.388802 0.000000 9.592410 15.055600 24.380005 28.471500 -2.839710 -0.536608 35.768700 -2.089810 26.521000 0.000000 62.327301 0.000000 -13.300200 -2.010100 -5.821660 -0.222518 -8.781539 -43.935364 0.000000 0.000000 86.051903 -15.550339 8.155001 5.528789 0.000000 0.000000 -12.915330 13.173716 -3.200444 -51.833654 0.000000 0.000000 109.117996 21.724902 -16.302255 19.018207 0.000000 0.000000 -23.190690 
-17.329608 6.269509 38.075389 -179.065808 -4.304643 149.981333 7.933500 -18.874277 -4.630964 -6.113095 23.568470 41.034779 0.000000 0.000000 0.000000 0.451794 8.290366 18.234830 -19.409461 -10.871292 -80.964378 -24.835699 2.339560 1.636170 -43.498199 11.422500 2.937988 0.000000 -72.246803 0.000000 10.216000 14.765100 24.018005 28.329300 -2.780460 -0.451251 35.738098 -2.152610 26.427799 0.000000 62.254002 0.000000 -13.790700 -1.909070 -5.595840 -0.202843 -8.994842 -44.215127 0.000000 0.000000 87.237396 -15.237654 8.419448 5.071356 0.000000 0.000000 -12.861340 12.793722 -3.042280 -51.405464 0.000000 0.000000 108.253998 21.731772 -15.906219 18.967820 0.000000 0.000000 -24.663300 
-17.333501 6.270576 38.073110 -178.989741 -4.394315 150.112955 8.141917 -18.715441 -4.526346 -5.961052 23.728469 41.176529 0.000000 0.000000 0.000000 -1.058926 9.990303 18.740857 -20.445324 -10.880189 -80.222177 -25.023199 2.426330 1.576060 -43.589401 11.136300 3.125000 0.000000 -72.021797 0.000000 10.319600 14.490600 23.389008 28.202000 -2.826630 -0.443811 35.728001 -2.110910 26.374201 0.000000 62.133499 0.000000 -13.925000 -1.962390 -4.677630 -0.206831 -9.098763 -44.486707 0.000000 0.000000 88.398499 -15.089426 8.591877 4.775616 0.000000 0.000000 -12.938530 12.399592 -2.725195 -50.908991 0.000000 0.000000 107.318001 22.364976 -15.549274 18.705571 0.000000 0.000000 -24.535680 
-17.333232 6.271932 38.065164 -178.887814 -4.485426 150.254711 8.208292 -18.675572 -4.458058 -5.612683 23.880762 41.384864 0.000000 0.000000 0.000000 -2.419994 11.462163 19.090925 -21.743943 -10.764718 -79.321003 -25.315001 2.702240 1.472580 -43.634399 10.749700 3.390991 0.000000 -71.675598 0.000000 10.848500 14.304700 22.292999 28.052000 -2.892410 -0.471753 35.661098 -2.062810 26.538401 0.000000 62.035301 0.000000 -14.735100 -1.770950 -5.101400 -0.186610 -9.062969 -44.835478 0.000000 0.000000 89.659500 -14.902269 8.633719 4.568477 0.000000 0.000000 -12.796780 12.060173 -2.367798 -50.433365 0.000000 0.000000 106.408997 23.270169 -15.086721 18.278924 0.000000 0.000000 -23.742050 
-17.335154 6.273389 38.061266 -178.885669 -4.729677 150.466380 8.245675 -18.613745 -4.423088 -5.459834 23.973399 41.393437 0.000000 0.000000 0.000000 -3.947462 13.198184 19.523598 -22.028769 -10.966895 -78.755746 -25.515400 2.746480 1.376540 -43.773499 10.563200 3.515991 0.000000 -71.293404 0.000000 11.217000 14.286300 21.471985 27.998100 -2.851630 -0.382498 35.531300 -2.041650 26.473801 0.000000 61.992298 0.000000 -14.379300 -2.208990 -8.572000 -0.301998 -9.222636 -45.168850 0.000000 0.000000 90.691803 -15.256320 8.370952 4.358927 0.000000 0.000000 -12.840180 11.551834 -2.103296 -50.072000 0.000000 0.000000 105.515999 23.807166 -14.575301 17.881403 0.000000 0.000000 -23.152610 
-17.336407 6.275246 38.056526 -178.886437 -4.989655 150.719790 8.326965 -18.540913 -4.410381 -5.482313 24.015066 41.388736 0.000000 0.000000 0.000000 -5.257093 14.677707 19.794694 -23.185892 -10.878588 -78.035340 -25.674000 2.865260 1.250900 -43.892700 10.316200 3.545013 0.000000 -70.939796 0.000000 11.352300 14.138300 20.859009 28.016701 -2.857970 -0.342466 35.437099 -1.860680 26.531500 0.000000 61.837002 0.000000 -14.943400 -1.986190 -9.302440 -0.408336 -9.359022 -45.579056 0.000000 0.000000 91.702103 -15.602547 7.992085 4.368613 0.000000 0.000000 -12.724890 11.098645 -1.869517 -49.813693 0.000000 0.000000 104.608002 23.416171 -14.456987 18.063466 0.000000 0.000000 -23.067480 
-17.334410 6.276354 38.047176 -178.835864 -5.247885 150.916003 8.358088 -18.510824 -4.404371 -5.263106 24.117325 41.497275 0.000000 0.000000 0.000000 -6.541993 15.924141 19.822796 -24.276114 -10.888578 -77.190426 -25.751400 2.816970 1.350780 -44.107399 10.021800 3.513000 0.000000 -70.633003 0.000000 11.567500 13.933100 20.641998 27.873800 -2.881790 -0.348955 35.563499 -1.833530 26.425100 0.000000 61.736401 0.000000 -15.191800 -2.222720 -8.985630 -0.460366 -9.389995 -46.022613 0.000000 0.000000 92.800697 -15.743431 7.600400 4.652361 0.000000 0.000000 -12.808430 10.729060 -1.635862 -49.527558 0.000000 0.000000 103.760002 23.304433 -14.287395 18.112740 0.000000 0.000000 -22.821480 
